#N canvas 735 395 2068 1270 12;
#X obj 1039 594;
#X obj 327 403 s toCPP;
#X obj 385 150 loadbang;
#X obj 540 291 route control;
#X obj 199 377 dac~;
#X msg 385 218 control Slider frequency 0 1000 \, control PushButton
Test1 \, control ToggleButton Test2 on \, ready;
#X obj 188 269 nbx 5 14 -1e+37 1e+37 0 0 empty empty empty 0 -8 0 10
-262144 -1 -1 0 256;
#X obj 181 228 r frequency;
#X obj 201 333 phasor~;
#X connect 2 0 5 0;
#X connect 5 0 1 0;
#X connect 6 0 8 0;
#X connect 7 0 6 0;
#X connect 8 0 4 0;
#X connect 8 0 4 1;
